<!-- Generator: Adobe Illustrator 13.0.0, SVG Export Plug-In . SVG Version: 6.00 Build 14948)  -->
<svg xmlns:dc="http://purl.org/dc/elements/1.1/" xmlns:cc="http://creativecommons.org/ns#" xmlns:rdf="http://www.w3.org/1999/02/22-rdf-syntax-ns#" xmlns:svg="http://www.w3.org/2000/svg" xmlns="http://www.w3.org/2000/svg" xmlns:xlink="http://www.w3.org/1999/xlink" xmlns:sodipodi="http://sodipodi.sourceforge.net/DTD/sodipodi-0.dtd" xmlns:inkscape="http://www.inkscape.org/namespaces/inkscape" version="1.1" id="map" x="0px" y="0px" width="960" height="850" viewBox="0 0 2673.8766 1885.32" preserveAspectRatio="xMinYMin meet" xml:space="preserve" inkscape:version="0.48.2 r9819" sodipodi:docname="map.svg">
  <g id="map-content">
    <path d="m 102.273,1516.29 387.842,0.03 c 8.277,0 14.988,-6.71 14.988,-15 l 0.004,-264.42 c 0,-16 12.963,-28.97 28.955,-28.97 l 129.822,-0.181 c 8,0 15.239,3.23 20.477,8.49 5.232,5.23 90.248,91.17 92.965,93.88 2.701,2.71 6.445,4.38 10.59,4.38 l 368.754,-0.22 c 6.05,0 10.95,-4.91 10.95,-10.96 v -143.24 c 0,-15.99 12.97,-28.97 28.95,-28.97 l 262.2,0.05 c 2.99,-0.08 5.79,-1.32 7.87,-3.38 l 62.31,-60.33 2.75,-2.77 c 5.46,-5.67 13.1,-8.971 21.149,-8.891 l 292.44,-0.05 c 16.79,0 30.39,13.62 30.39,30.41 l 0.051,188.28 c 0,4.87 3.939,8.83 8.819,8.83 l 112.431,0.029 c 5.119,0 9.279,-4.17 9.279,-9.27 l -0.01,-179.82 c 0,-17.64 14.29,-31.979 31.91,-31.979 l 123.01,-0.04 c 19.4,0 35.18,15.72 35.18,35.13 v 120.399 c 0,4.341 3.511,7.87 7.84,7.87 l 321.511,-0.02 v 25.25 l -315.72,0.04 c -20.37,0 -36.94,-16.5 -36.94,-36.88 l 0.01,-120.011 c 0,-5.63 -4.55,-10.21 -10.18,-10.21 h -125.83 c -5.11,0 -9.25,4.15 -9.25,9.28 l 0.01,179.82 c 0,17.63 -14.3,31.979 -31.93,31.979 l -111.26,-0.04 c -16.8,0 -30.46,-13.609 -30.46,-30.41 V 1085.18 c 0,-6.37 -5.16,-11.54 -11.54,-11.54 l -289.86,0.069 c -2.98,0.08 -5.79,1.32 -7.86,3.37 l -65.06,63.11 c -5.44,5.66 -13.09,8.979 -21.16,8.89 l -261.45,-0.01 c -6.38,0 -11.57,5.18 -11.57,11.56 l 0.04,139.08 c 0,16 -4.76,28.971 -20.75,28.971 l -377.399,0.279 c -7.999,0 -15.237,-3.239 -20.479,-8.489 -5.234,-5.25 -90.291,-91.181 -93.004,-93.881 -2.717,-2.72 -6.457,-4.409 -10.603,-4.409 l -129.012,0.149 c -8.279,0 -14.99,6.721 -14.99,15 v 264.431 c 0,16 -12.963,28.96 -28.955,28.96 H 102.273 v -14.43" id="path173" inkscape:connector-curvature="0" style="fill:#c7eafb"/>
    <path d="m 102.273,1516.29 387.842,0.03 c 8.277,0 14.988,-6.71 14.988,-15 l 0.004,-264.42 c 0,-16 12.963,-28.97 28.955,-28.97 l 129.822,-0.181 c 8,0 15.239,3.23 20.477,8.49 5.232,5.23 90.248,91.17 92.965,93.88 2.701,2.71 6.445,4.38 10.59,4.38 l 368.754,-0.22 c 6.05,0 10.95,-4.91 10.95,-10.96 v -143.24 c 0,-15.99 12.97,-28.97 28.95,-28.97 l 262.2,0.05 c 2.99,-0.08 5.79,-1.32 7.87,-3.38 l 62.31,-60.33 2.75,-2.77 c 5.46,-5.67 13.1,-8.971 21.149,-8.891 l 292.44,-0.05 c 16.79,0 30.39,13.62 30.39,30.41 l 0.051,188.28 c 0,4.87 3.939,8.83 8.819,8.83 l 112.431,0.029 c 5.119,0 9.279,-4.17 9.279,-9.27 l -0.01,-179.82 c 0,-17.64 14.29,-31.979 31.91,-31.979 l 123.01,-0.04 c 19.4,0 35.18,15.72 35.18,35.13 v 120.399 c 0,4.341 3.511,7.87 7.84,7.87 l 321.511,-0.02 m 0,25.253 -315.72,0.04 c -20.37,0 -36.94,-16.5 -36.94,-36.88 l 0.01,-120.011 c 0,-5.63 -4.55,-10.21 -10.18,-10.21 h -125.83 c -5.11,0 -9.25,4.15 -9.25,9.28 l 0.01,179.82 c 0,17.63 -14.3,31.979 -31.93,31.979 l -111.26,-0.04 c -16.8,0 -30.46,-13.609 -30.46,-30.41 V 1085.18 c 0,-6.37 -5.16,-11.54 -11.54,-11.54 l -289.86,0.069 c -2.98,0.08 -5.79,1.32 -7.86,3.37 l -65.06,63.11 c -5.44,5.66 -13.09,8.979 -21.16,8.89 l -261.45,-0.01 c -6.38,0 -11.57,5.18 -11.57,11.56 l 0.04,139.08 c 0,33.221 -20.34,28.971 -28.95,28.971 l -369.199,0.279 c -7.999,0 -15.237,-3.239 -20.479,-8.489 -5.234,-5.25 -90.291,-91.181 -93.004,-93.881 -2.717,-2.72 -6.457,-4.409 -10.603,-4.409 l -129.012,0.149 c -8.279,0 -14.99,6.721 -14.99,15 v 264.431 c 0,16 -12.963,28.96 -28.955,28.96 H 102.273" id="path175" inkscape:connector-curvature="0" style="fill:none;stroke:#00aeef;stroke-width:0.72299999"/>
    <path d="m 1655.943,1068.36 v -8.045 h 3.565 c 0.716,0 1.261,0.072 1.634,0.217 0.373,0.145 0.671,0.4 0.895,0.766 0.223,0.366 0.334,0.771 0.334,1.213 0,0.57 -0.185,1.052 -0.554,1.443 -0.369,0.391 -0.939,0.64 -1.711,0.746 0.281,0.136 0.495,0.269 0.642,0.4 0.311,0.285 0.605,0.643 0.883,1.07 l 1.398,2.189 h -1.338 l -1.064,-1.674 c -0.311,-0.482 -0.566,-0.853 -0.768,-1.108 -0.202,-0.255 -0.381,-0.436 -0.54,-0.538 -0.159,-0.102 -0.321,-0.173 -0.485,-0.214 -0.121,-0.025 -0.318,-0.038 -0.593,-0.038 h -1.233 v 3.572 h -1.065 z m 1.065,-4.494 h 2.287 c 0.486,0 0.866,-0.051 1.141,-0.151 0.275,-0.1 0.482,-0.261 0.625,-0.482 0.143,-0.221 0.214,-0.462 0.214,-0.722 0,-0.381 -0.138,-0.693 -0.414,-0.938 -0.276,-0.245 -0.712,-0.367 -1.308,-0.367 h -2.545 v 2.66 z" id="path179" inkscape:connector-curvature="0" style="fill:#00b3f0"/>
    <path d="m 1663.918,1061.451 v -1.136 h 0.987 v 1.136 h -0.987 z m 0,6.909 v -5.828 h 0.987 v 5.828 h -0.987 z" id="path181" inkscape:connector-curvature="0" style="fill:#00b3f0"/>
    <path d="m 1668.026,1068.36 -2.216,-5.828 h 1.042 l 1.251,3.49 c 0.135,0.377 0.259,0.769 0.372,1.175 0.088,-0.308 0.211,-0.677 0.368,-1.108 l 1.294,-3.557 h 1.015 l -2.205,5.828 h -0.921 z" id="path183" inkscape:connector-curvature="0" style="fill:#00b3f0"/>
    <path d="m 1675.91,1066.483 1.021,0.126 c -0.161,0.597 -0.459,1.06 -0.895,1.389 -0.435,0.329 -0.99,0.494 -1.667,0.494 -0.852,0 -1.527,-0.263 -2.026,-0.787 -0.499,-0.525 -0.749,-1.262 -0.749,-2.209 0,-0.98 0.253,-1.741 0.757,-2.283 0.505,-0.541 1.159,-0.812 1.964,-0.812 0.778,0 1.415,0.265 1.908,0.795 0.494,0.531 0.74,1.277 0.74,2.239 0,0.059 0,0.146 0,0.264 h -4.344 c 0.036,0.64 0.218,1.13 0.543,1.471 0.325,0.34 0.731,0.51 1.218,0.51 0.361,0 0.671,-0.095 0.927,-0.285 0.256,-0.19 0.459,-0.495 0.608,-0.912 z m -3.241,-1.597 h 3.252 c -0.044,-0.49 -0.168,-0.857 -0.373,-1.103 -0.314,-0.381 -0.722,-0.571 -1.223,-0.571 -0.453,0 -0.835,0.152 -1.144,0.456 -0.309,0.304 -0.479,0.709 -0.512,1.218 z" id="path185" inkscape:connector-curvature="0" style="fill:#00b3f0"/>
    <path d="m 1678.159,1068.36 v -5.828 h 0.889 v 0.884 c 0.227,-0.413 0.436,-0.686 0.628,-0.817 0.191,-0.132 0.403,-0.197 0.633,-0.197 0.333,0 0.671,0.105 1.015,0.318 l -0.34,0.916 c -0.241,-0.143 -0.482,-0.214 -0.724,-0.214 -0.216,0 -0.409,0.064 -0.581,0.194 -0.172,0.13 -0.295,0.311 -0.368,0.541 -0.109,0.351 -0.164,0.735 -0.164,1.152 v 3.051 h -0.988 z" id="path187" inkscape:connector-curvature="0" style="fill:#00b3f0"/>
    <path d="m 1687.202,1068.36 v -7.096 h -2.648 v -0.949 h 6.372 v 0.949 h -2.659 v 7.096 h -1.065 z" id="path189" inkscape:connector-curvature="0" style="fill:#00b3f0"/>
    <path d="m 1691.892,1068.36 v -8.045 h 0.987 v 2.887 c 0.461,-0.534 1.042,-0.801 1.744,-0.801 0.432,0 0.807,0.085 1.124,0.255 0.318,0.17 0.546,0.405 0.683,0.705 0.138,0.3 0.206,0.735 0.206,1.306 v 3.693 h -0.987 v -3.693 c 0,-0.493 -0.106,-0.853 -0.32,-1.078 -0.214,-0.225 -0.517,-0.337 -0.908,-0.337 -0.292,0 -0.567,0.075 -0.825,0.228 -0.258,0.151 -0.441,0.357 -0.551,0.617 -0.11,0.26 -0.165,0.618 -0.165,1.075 v 3.188 h -0.988 z" id="path191" inkscape:connector-curvature="0" style="fill:#00b3f0"/>
    <path d="m 1701.939,1067.641 c -0.365,0.311 -0.718,0.53 -1.056,0.658 -0.338,0.128 -0.701,0.192 -1.089,0.192 -0.64,0 -1.132,-0.156 -1.475,-0.47 -0.344,-0.312 -0.516,-0.712 -0.516,-1.198 0,-0.286 0.064,-0.546 0.194,-0.782 0.13,-0.236 0.3,-0.426 0.51,-0.568 0.211,-0.143 0.447,-0.25 0.711,-0.323 0.193,-0.052 0.485,-0.101 0.877,-0.148 0.797,-0.095 1.384,-0.208 1.761,-0.34 0,-0.136 0.01,-0.222 0.01,-0.258 0,-0.402 -0.094,-0.687 -0.28,-0.851 -0.252,-0.224 -0.627,-0.335 -1.124,-0.335 -0.465,0 -0.808,0.081 -1.028,0.244 -0.222,0.163 -0.385,0.451 -0.491,0.864 l -0.965,-0.132 c 0.088,-0.413 0.231,-0.747 0.433,-1.001 0.201,-0.255 0.492,-0.45 0.872,-0.588 0.381,-0.137 0.821,-0.205 1.322,-0.205 0.497,0 0.901,0.059 1.212,0.175 0.311,0.117 0.539,0.265 0.686,0.442 0.147,0.177 0.249,0.401 0.307,0.672 0.033,0.168 0.05,0.472 0.05,0.911 v 1.316 c 0,0.919 0.021,1.499 0.063,1.743 0.042,0.243 0.125,0.477 0.249,0.699 h -1.031 c -0.103,-0.203 -0.168,-0.442 -0.198,-0.717 z m -0.082,-2.206 c -0.358,0.146 -0.896,0.271 -1.612,0.373 -0.406,0.059 -0.693,0.124 -0.861,0.197 -0.168,0.073 -0.298,0.181 -0.39,0.321 -0.091,0.141 -0.137,0.298 -0.137,0.47 0,0.263 0.1,0.482 0.299,0.658 0.199,0.176 0.491,0.264 0.875,0.264 0.38,0 0.718,-0.084 1.015,-0.25 0.296,-0.167 0.514,-0.395 0.652,-0.684 0.106,-0.223 0.159,-0.552 0.159,-0.987 v -0.362 z" id="path193" inkscape:connector-curvature="0" style="fill:#00b3f0"/>
    <path d="m 1704.385,1068.36 v -5.828 h 0.883 v 0.818 c 0.184,-0.285 0.426,-0.516 0.729,-0.688 0.304,-0.174 0.649,-0.261 1.037,-0.261 0.431,0 0.785,0.089 1.061,0.269 0.276,0.18 0.471,0.43 0.585,0.752 0.46,-0.681 1.06,-1.021 1.799,-1.021 0.577,0 1.021,0.16 1.332,0.479 0.312,0.32 0.467,0.813 0.467,1.479 v 4 h -0.982 v -3.671 c 0,-0.396 -0.031,-0.68 -0.096,-0.854 -0.063,-0.174 -0.18,-0.313 -0.348,-0.42 -0.169,-0.105 -0.366,-0.159 -0.593,-0.159 -0.409,0 -0.75,0.137 -1.021,0.409 -0.271,0.272 -0.405,0.709 -0.405,1.309 v 3.386 h -0.987 v -3.786 c 0,-0.439 -0.08,-0.769 -0.241,-0.988 -0.161,-0.219 -0.425,-0.329 -0.79,-0.329 -0.277,0 -0.534,0.073 -0.771,0.22 -0.235,0.146 -0.407,0.36 -0.513,0.642 -0.106,0.282 -0.159,0.688 -0.159,1.219 v 3.023 h -0.987 z" id="path195" inkscape:connector-curvature="0" style="fill:#00b3f0"/>
    <path d="m 1717.729,1066.483 1.021,0.126 c -0.161,0.597 -0.459,1.06 -0.895,1.389 -0.435,0.329 -0.99,0.494 -1.667,0.494 -0.852,0 -1.527,-0.263 -2.026,-0.787 -0.499,-0.525 -0.749,-1.262 -0.749,-2.209 0,-0.98 0.253,-1.741 0.757,-2.283 0.505,-0.541 1.159,-0.812 1.964,-0.812 0.778,0 1.415,0.265 1.908,0.795 0.494,0.531 0.74,1.277 0.74,2.239 0,0.059 0,0.146 0,0.264 h -4.344 c 0.036,0.64 0.218,1.13 0.543,1.471 0.325,0.34 0.731,0.51 1.218,0.51 0.361,0 0.671,-0.095 0.927,-0.285 0.256,-0.19 0.459,-0.495 0.608,-0.912 z m -3.241,-1.597 h 3.252 c -0.044,-0.49 -0.168,-0.857 -0.373,-1.103 -0.314,-0.381 -0.722,-0.571 -1.223,-0.571 -0.453,0 -0.835,0.152 -1.144,0.456 -0.309,0.304 -0.479,0.709 -0.512,1.218 z" id="path197" inkscape:connector-curvature="0" style="fill:#00b3f0"/>
    <path d="m 1719.594,1066.621 0.976,-0.154 c 0.056,0.392 0.208,0.691 0.458,0.9 0.251,0.208 0.601,0.312 1.051,0.312 0.453,0 0.79,-0.092 1.009,-0.277 0.22,-0.185 0.329,-0.401 0.329,-0.649 0,-0.224 -0.097,-0.399 -0.29,-0.527 -0.136,-0.088 -0.472,-0.199 -1.01,-0.335 -0.724,-0.183 -1.226,-0.341 -1.505,-0.475 -0.28,-0.133 -0.492,-0.318 -0.637,-0.554 -0.145,-0.236 -0.217,-0.497 -0.217,-0.782 0,-0.26 0.06,-0.5 0.179,-0.722 0.118,-0.221 0.28,-0.405 0.485,-0.552 0.153,-0.113 0.362,-0.209 0.628,-0.288 0.265,-0.078 0.549,-0.117 0.853,-0.117 0.457,0 0.858,0.065 1.204,0.197 0.346,0.132 0.601,0.31 0.765,0.535 0.165,0.225 0.278,0.525 0.341,0.902 l -0.966,0.132 c -0.044,-0.3 -0.171,-0.534 -0.381,-0.702 -0.211,-0.169 -0.508,-0.253 -0.892,-0.253 -0.453,0 -0.776,0.075 -0.971,0.226 -0.193,0.149 -0.291,0.325 -0.291,0.526 0,0.128 0.041,0.243 0.121,0.346 0.08,0.106 0.207,0.194 0.379,0.264 0.099,0.036 0.389,0.12 0.872,0.252 0.698,0.187 1.185,0.34 1.461,0.458 0.276,0.119 0.493,0.292 0.65,0.519 0.157,0.228 0.235,0.509 0.235,0.846 0,0.329 -0.096,0.639 -0.288,0.93 -0.191,0.291 -0.469,0.516 -0.83,0.675 -0.362,0.159 -0.771,0.239 -1.229,0.239 -0.757,0 -1.334,-0.157 -1.73,-0.472 -0.397,-0.316 -0.65,-0.782 -0.759,-1.4 z" id="path199" inkscape:connector-curvature="0" style="fill:#00b3f0"/>
    <path stroke-miterlimit="3.994" d="m 1958.84,989.007 c 4.391,0 10.811,2.813 14.25,6.259 l 9.44,9.443 c 3.45,3.44 6.26,10.24 6.26,15.11 m 196.7,-30.805 c 4.87,0 11.67,2.814 15.12,6.254 l 314.56,314.571" id="path215" inkscape:connector-curvature="0" style="fill:none;stroke:#00b1b0;stroke-width:6.65100002;stroke-linejoin:round;stroke-miterlimit:3.99399996"/>
    <path stroke-miterlimit="3.994" d="m 2083.08,694.799 v 14.131 c 0,4.869 -2.82,11.67 -6.26,15.11 l -81.771,81.763 c -3.45,3.442 -6.26,8.588 -6.26,13.516 v 642.531" id="path219" inkscape:connector-curvature="0" style="fill:none;stroke:#00b1b0;stroke-width:6.65100002;stroke-linejoin:round;stroke-miterlimit:3.99399996"/>
    <path stroke-miterlimit="3.994" d="m 2083.08,694.799 v 14.131 c 0,4.869 -2.82,11.67 -6.26,15.11 l -81.771,81.763 c -3.45,3.442 -6.26,8.588 -6.26,13.516 v 642.531" id="path221" inkscape:connector-curvature="0" style="fill:none;stroke:#ffffff;stroke-width:2.20099998;stroke-linejoin:round;stroke-miterlimit:3.99399996"/>
    <path stroke-miterlimit="3.994" d="m 1780.36,989.007 c -4.87,0 -11.671,2.813 -15.11,6.259 -4.7,4.688 -27.36,27.354 -27.36,27.354 m -152.05,-58.592 h 152.5 c 4.87,0 11.68,2.826 15.12,6.265 l 12.45,12.452 c 3.439,3.439 10.25,6.263 15.12,6.263 h 465.76 c 4.87,0 11.67,2.813 15.11,6.259 l 187.67,187.674" id="path223" inkscape:connector-curvature="0" style="fill:none;stroke:#00b1b0;stroke-width:6.6500001;stroke-linejoin:round;stroke-miterlimit:3.99399996"/>
    <path stroke-miterlimit="3.994" d="m 1780.36,989.007 c -4.87,0 -11.671,2.813 -15.11,6.259 -4.7,4.688 -27.36,27.354 -27.36,27.354 m -152.05,-58.592 h 152.5 c 4.87,0 11.68,2.826 15.12,6.265 l 12.45,12.452 c 3.439,3.439 10.25,6.263 15.12,6.263 h 465.76 c 4.87,0 11.67,2.813 15.11,6.259 l 187.67,187.674 M 1958.84,989.007 c 4.391,0 10.811,2.813 14.25,6.259 l 9.44,9.443 c 3.45,3.44 6.26,10.24 6.26,15.11 m 196.7,-30.805 c 4.87,0 11.67,2.814 15.12,6.254 l 314.56,314.571" id="path225" inkscape:connector-curvature="0" style="fill:none;stroke:#ffffff;stroke-width:2.20099998;stroke-linejoin:round;stroke-miterlimit:3.99399996"/>
    <path stroke-miterlimit="3.994" d="m 1346.09,1164.15 134.17,-0.01 c 4.87,0 11.67,-2.82 15.12,-6.261 l 61.31,-61.31 c 3.44,-3.45 6.261,-10.25 6.261,-15.12 V 940.356" id="waterloo" inkscape:label="waterloo" inkscape:connector-curvature="0" style="fill:none;stroke:#86cebc;stroke-width:6.6500001;stroke-linejoin:round;stroke-miterlimit:3.99399996"/>
    <path stroke-miterlimit="3.994" d="m 1369.68,1341.379 -23.82,-23.81 c -3.44,-3.44 -6.26,-10.24 -6.26,-15.11 M 757.822,651.686 c 0,-4.869 0,-12.84 0,-17.711 V 327.637" id="path229" inkscape:connector-curvature="0" style="fill:none;stroke:#b06010;stroke-width:6.65100002;stroke-linejoin:round;stroke-miterlimit:3.99399996"/>
    <path stroke-miterlimit="3.994" d="m 757.851,327.657 v 306.33 c 0,4.871 0,12.84 0,17.711 v 6.508 c 0,5.564 2.443,11.293 6.264,15.121 l 49.406,49.4 c 3.436,3.436 10.244,6.256 15.115,6.256 l 237.124,0.006 c 4.87,0 11.67,2.822 15.11,6.26 l 115.2,115.199 c 3.45,3.445 6.26,10.244 6.26,15.113 v 48.562 c 0,4.871 2.82,11.67 6.26,15.115 l 124.76,124.773 c 3.45,3.439 6.27,10.25 6.27,15.109 v 233.311 c 0,4.87 2.82,11.67 6.26,15.12 l 23.81,23.819 M 757.851,658.204 c 0,5.564 2.443,11.293 6.264,15.121" id="bakerloo" class="line" inkscape:label="bakerloo" inkscape:connector-curvature="0" style="fill:none;stroke:#b06010;stroke-width:6.6500001;stroke-linejoin:round;stroke-miterlimit:3.99399996"/>
    <path style="fill:none;stroke:#939ba1;stroke-width:6.6500001;stroke-linejoin:round;stroke-miterlimit:3.99399996" inkscape:connector-curvature="0" stroke-miterlimit="3.994" d="m 2077.9211,685.604 45.1,45.109 c 3.45,3.452 6.271,10.252 6.271,15.121 v 282.085 c 0,4.87 -2.82,11.67 -6.271,15.12 l -59.38,59.391 c -3.45,3.439 -10.239,6.26 -15.109,6.26 h -473.58 c -4.86,0 -11.67,2.81 -15.12,6.25" id="path269"/>
    <path style="fill:none;stroke:#939ba1;stroke-width:6.64900017;stroke-linejoin:round;stroke-miterlimit:3.99399996" inkscape:connector-curvature="0" stroke-miterlimit="3.994" d="m 1559.8311,1114.94 -77.44,77.46 c -3.45,3.45 -10.25,6.26 -15.12,6.26 h -148.32 c -11.7,0 -21.18,-9.479 -21.18,-21.18 l -0.03,-36.67 c 0,-4.87 -2.81,-11.67 -6.25,-15.11 l -161.63,-160.805 c -3.44,-3.445 -6.26,-10.246 -6.26,-15.115 V 710.711 c 0,-4.871 -2.82,-11.669 -6.26,-15.113 l -254.237,-254.24 c -3.451,-3.441 -6.264,-10.244 -6.264,-15.115 V 303.395" id="jubilee" inkscape:label="jubilee"/>
    <path stroke-miterlimit="3.994" d="m 1321.47,1492.1 -171.229,-171.23 c -3.44,-3.439 -6.26,-10.24 -6.26,-15.109 V 964.315 c 0,-4.871 2.82,-11.674 6.26,-15.109 l 236.56,-236.557 c 3.44,-3.441 10.24,-6.266 15.11,-6.266 h 213.45 c 4.87,0 11.67,-2.816 15.12,-6.258 l 36.25,-36.246 c 3.439,-3.439 6.25,-10.238 6.25,-15.113 V 533.719 c 0,-4.869 2.819,-11.668 6.26,-15.109 l 67.68,-67.664 c 3.44,-3.447 10.24,-6.266 15.11,-6.266 h 257.45" id="victoria" class="line" inkscape:label="victoria" inkscape:connector-curvature="0" style="fill:none;stroke:#009ddc;stroke-width:6.65100002;stroke-linejoin:round;stroke-miterlimit:3.99399996"/>
    <path stroke-miterlimit="3.994" d="m 1379.47,646.51 c 0,-4.871 -2.82,-11.67 -6.26,-15.115 l -0.76,-0.766 c -3.44,-3.445 -6.26,-10.244 -6.26,-15.113 v -18.322 c 0,-4.871 2.82,-11.68 6.26,-15.115 l 63.24,-63.25 c 3.45,-3.448 6.26,-10.248 6.26,-15.12 v -343" id="path277" inkscape:connector-curvature="0" style="fill:none;stroke:#000000;stroke-width:6.65100002;stroke-linejoin:round;stroke-miterlimit:3.99399996"/>
    <path stroke-miterlimit="3.994" d="m 1313.78,1396.5 c 3.43,-3.439 6.25,-10.25 6.25,-15.12 m 32.87,-734.87 c 0,-4.871 2.82,-11.67 6.26,-15.115 l 0.77,-0.766 c 3.44,-3.445 6.26,-10.244 6.26,-15.113 v -18.322 c 0,-4.871 -2.82,-11.67 -6.26,-15.115 -3.53,-3.528 -312.56,-312.557 -312.56,-312.557 m 332.1,376.988 c 0,-4.871 -2.82,-11.67 -6.26,-15.115 l -0.76,-0.766 c -3.44,-3.445 -6.26,-10.244 -6.26,-15.113 v -18.322 c 0,-4.871 2.82,-11.68 6.26,-15.115" id="path279" inkscape:connector-curvature="0" style="fill:none;stroke:#000000;stroke-width:6.65100002;stroke-linejoin:round;stroke-miterlimit:3.99399996"/>
    <path stroke-miterlimit="3.994" d="m 1379.48,709.985 v -63.469 c 0,-4.871 -2.81,-11.674 -6.26,-15.115 l -0.76,-0.766 c -3.44,-3.441 -6.26,-10.246 -6.26,-15.115 v -18.316 c 0,-4.875 2.82,-11.678 6.26,-15.118 l 63.24,-63.248 c 3.45,-3.445 6.27,-10.244 6.27,-15.115 v -342.98" id="path333" inkscape:connector-curvature="0" style="fill:none;stroke:#000000;stroke-width:6.65100002;stroke-linejoin:round;stroke-miterlimit:3.99399996"/>
    <path style="fill:none;stroke:#000000;stroke-width:6.65100002;stroke-linejoin:round;stroke-miterlimit:3.99399996" inkscape:connector-curvature="0" stroke-miterlimit="3.994" d="m 1441.95,299.774 c 0,-4.869 -2.81,-11.668 -6.26,-15.115 -2.36,-2.362 -2.24,-2.246 -38.79,-38.799" id="path293"/>
    <path style="fill:none;stroke:#000000;stroke-width:6.6500001;stroke-linejoin:round;stroke-miterlimit:3.99399996" inkscape:connector-curvature="0" stroke-miterlimit="3.994" d="m 1313.79,1396.48 c 3.44,-3.44 6.26,-10.25 6.26,-15.12 V 764.917 c 0,-4.872 2.82,-11.672 6.26,-15.116 l 20.35,-20.357 c 3.45,-3.442 6.26,-10.047 6.26,-14.68 v -68.248 c 0,-4.871 2.82,-11.674 6.26,-15.115 l 0.76,-0.766 c 3.45,-3.441 6.26,-10.246 6.26,-15.115 v -18.316 c 0,-4.875 -2.81,-11.678 -6.26,-15.118 -3.53,-3.527 -303.56,-303.566 -303.56,-303.566 m -51.05,1426.399 572.42,-572.399 c 3.439,-3.45 6.26,-10.25 6.26,-15.12 V 755.471 c 0,-5.965 -2.42,-11.371 -6.33,-15.279 -3.91,-3.916 -9.33,-6.334 -15.29,-6.334 h -161.62 c -11.75,0 -21.29,-9.531 -21.29,-21.289 v -66.053 c 0,-4.871 -2.81,-11.674 -6.26,-15.115 l -0.76,-0.766 c -3.44,-3.441 -6.26,-10.246 -6.26,-15.115 v -18.316 c 0,-4.875 2.82,-11.678 6.26,-15.118" id="northern" inkscape:label="northern"/>
    <path style="fill:none;stroke:#1c3f94;stroke-width:6.65100002;stroke-linejoin:round;stroke-miterlimit:3.99399996" inkscape:connector-curvature="0" stroke-miterlimit="3.994" d="m 232.332,1298.29 c -4.659,4.66 -6.995,10.761 -6.993,16.88 v 47.75 c 0,6.11 -2.33,12.221 -6.99,16.881 -0.232,0.239 0,0 0,0 -4.322,4.31 -10.289,6.989 -16.873,6.989 -6.109,0 -12.223,-2.34 -16.875,-6.989 -4.318,-4.341 -6.984,-10.301 -6.984,-16.881 0,-6.6 2.67,-12.58 7.006,-16.899 l 47.826,-47.83 M 131.171,1399.45 441.734,1088.89 c 3.439,-3.45 10.244,-6.261 15.115,-6.261 h 132.006" id="path343"/>
    <path style="fill:none;stroke:#1c3f94;stroke-width:6.65100002;stroke-linejoin:round;stroke-miterlimit:3.99399996" inkscape:connector-curvature="0" stroke-miterlimit="3.994" d="m 488.083,1082.63 h 524.877 c 4.87,0 11.68,-2.83 15.12,-6.27 l 92.63,-92.623 c 3.45,-3.446 10.25,-6.262 15.12,-6.262 h 156.95 c 4.88,0 11.68,-2.821 15.12,-6.263 l 86.15,-86.151 c 3.44,-3.445 6.26,-10.244 6.26,-15.113 v -98.739 c 0,-4.869 2.82,-11.669 6.27,-15.111 l 321.5,-321.508 c 3.45,-3.445 6.26,-10.252 6.26,-15.119 V 168.768" id="piccadilly" inkscape:label="piccadilly"/>
    <path style="fill:none;stroke:#1c3f94;stroke-width:6.64900017;stroke-linejoin:round;stroke-miterlimit:3.99399996" inkscape:connector-curvature="0" stroke-miterlimit="3.994" d="m 498.677,1082.629 c -7.498,-0.02 -14.875,-2.829 -20.603,-8.54 l -6.973,-6.96 c -2.717,-2.729 -4.377,-6.42 -4.383,-10.579 V 423.514 c 0,-4.867 -2.826,-11.662 -6.273,-15.099 0,0 -68.414,-68.073 -71.307,-70.967 -2.803,-2.803 -8.34,-5.819 -12.896,-5.819 -5.565,0 -248.11,0 -248.11,0" id="path405"/>
    <path style="fill:none;stroke:#ee3224;stroke-width:6.65100002;stroke-linejoin:round;stroke-miterlimit:3.99399996" inkscape:connector-curvature="0" stroke-miterlimit="3.994" d="m 322.761,396.11 v 222.43 c 0,4.869 2.819,11.679 6.264,15.121 l 257.258,257.252 c 3.445,3.451 10.25,6.263 15.113,6.263 M 2134.1,499.766 c 0,-7.607 6.16,-13.771 13.771,-13.771 h 127.069 c 7.601,0 13.771,-6.166 13.771,-13.776 V 317.313 c 0,-7.604 -6.17,-13.775 -13.771,-13.775 h -127.07 c -7.61,0 -13.771,6.171 -13.771,13.775 m 10e-4,-199.645 v 516.811 c 0,2.814 -2.819,9.627 -6.26,13.066 L 1980.1,795.286 c -3.439,3.445 -10.239,6.257 -15.109,6.257" id="path407"/>
    <path style="fill:none;stroke:#ee3224;stroke-width:6.6500001;stroke-linejoin:round;stroke-miterlimit:3.99399996" inkscape:connector-curvature="0" stroke-miterlimit="3.994" d="m 418.041,897.184 h 1044.88 c 4.87,0 11.67,2.815 15.11,6.264 l 33.239,33.236 c 3.45,3.441 10.24,6.258 15.11,6.258 h 79.49 c 4.87,0 11.67,-2.817 15.12,-6.258 l 128.86,-128.873 c 3.45,-3.445 10.25,-6.268 15.12,-6.268 h 200.01" id="central" inkscape:label="central"/>
    <path stroke-miterlimit="3.994" d="M 756.291,1062.209 V 844.254 c 0,-4.869 2.824,-11.671 6.265,-15.119 l 73.527,-73.529 c 5.336,-5.336 12.44,-8.275 19.985,-8.275 h 611.362 c 7.55,0 14.65,2.939 19.99,8.275 l 78.26,78.254 c 2.83,2.822 6.58,4.375 10.58,4.375 h 149.75 c 7.551,0 14.65,2.947 19.99,8.275 5.34,5.346 8.27,12.44 8.27,19.99 0,8.184 0,45.948 0,45.948 0,5.527 2.11,11.06 6.33,15.275 l 7.59,7.555 c 4.74,4.74 7.881,7.113 14.091,7.113 6.21,0 12.43,-2.373 17.17,-7.113 l 105.33,-105.328 c 2.63,-2.602 5.8,-4.446 9.18,-5.866 3.39,-1.388 6.94,-2.33 10.63,-2.351 l 221.221,0.014 c 0.119,-0.004 0.229,-0.004 0.34,0 1.21,-0.018 3.41,-0.483 5.41,-1.334 2.1,-0.844 4.05,-2.133 4.869,-2.985 l 110.91,-110.908" id="hammersmith" inkscape:label="hammersmith" inkscape:connector-curvature="0" style="fill:none;stroke:#f386a1;stroke-width:6.6500001;stroke-linejoin:round;stroke-miterlimit:3.99399996"/>
    <path stroke-miterlimit="3.994" d="M 762.953,1062.209 V 844.254 c -0.024,-1.17 0.453,-3.461 1.334,-5.541 0.849,-2.101 2.136,-4.052 2.98,-4.865 l 73.527,-73.531 c 4.125,-4.106 9.456,-6.317 15.274,-6.324 l 611.362,-0.014 c 5.97,0 11.37,2.418 15.29,6.332 l 78.25,78.248 c 3.92,3.91 9.32,6.324 15.29,6.324 h 149.75 c 5.971,0 11.37,2.42 15.28,6.334 3.91,3.916 6.33,9.317 6.33,15.283 v 102.284 c 0,5.961 -2.42,11.371 -6.33,15.283 -3.91,3.912 -9.31,6.328 -15.28,6.328 h -155.93 c -5.97,0 -11.37,2.42 -15.28,6.326 l -91.83,91.839 c -2.83,2.819 -6.59,4.38 -10.58,4.38 H 948.564 c -5.961,0 -11.371,-2.42 -15.279,-6.32 -4.217,-4.229 -6.33,-9.76 -6.33,-15.29 V 793.077 c 0,-5.971 2.416,-11.371 6.33,-15.28 3.908,-3.916 9.318,-6.334 15.279,-6.334 h 56.626" id="circle" class="line" inkscape:label="circle" inkscape:connector-curvature="0" style="fill:none;stroke:#ffd200;stroke-width:6.6500001;stroke-linejoin:round;stroke-miterlimit:3.99399996"/>
    <path stroke-miterlimit="3.994" d="m 572.273,1099.589 c -5.973,0 -11.375,2.421 -15.285,6.33 -3.914,3.91 -6.33,9.311 -6.33,15.29 V 1281.3" id="path511" inkscape:connector-curvature="0" style="fill:none;stroke:#00853f;stroke-width:6.65100002;stroke-linejoin:round;stroke-miterlimit:3.99399996"/>
    <path stroke-miterlimit="3.994" d="m 876.484,1012.36 c 0,0 0,59.929 0,65.74 0,5.96 2.42,11.37 6.33,15.279 3.91,3.91 9.318,6.33 15.283,6.33 m -21.613,346.681 c 0,0 0,-319.261 0,-325.061 0,-5.979 2.42,-11.38 6.33,-15.29 3.91,-3.91 9.318,-6.33 15.283,-6.33 M 421.152,903.834 c 0,0 11.84,0 17.303,0 5.968,0 11.371,2.42 15.283,6.331 3.91,3.914 6.33,9.31 6.33,15.285 v 131.009 c 0,5.97 2.42,11.38 6.328,15.28 l 21.527,21.521 c 3.912,3.909 9.315,6.329 15.285,6.329 h 949.182 c 5.97,0 11.37,-2.42 15.28,-6.329 l 91.83,-91.83 c 2.83,-2.832 6.59,-4.384 10.58,-4.384 h 165.31 c 7.55,0 14.65,-2.942 19.99,-8.284 l 154.101,-154.111 c 3.439,-3.449 10.25,-6.262 15.109,-6.262 l 221.43,0.008 c 4.87,0 11.67,-2.82 15.11,-6.266 l 341.28,-341.277" id="district" class="line" inkscape:label="district" inkscape:connector-curvature="0" style="fill:none;stroke:#00853f;stroke-width:6.6500001;stroke-linejoin:round;stroke-miterlimit:3.99399996"/>
    <path stroke-miterlimit="3.994" d="m 898.695,1099.709 c 5.961,0 11.828,-2.89 15.277,-6.33 3.453,-3.46 6.326,-9.319 6.326,-15.279 V 793.077 c 0,-7.547 2.944,-14.647 8.284,-19.983 5.339,-5.344 12.435,-8.279 19.982,-8.279 h 56.306" id="path569" inkscape:connector-curvature="0" style="fill:none;stroke:#00853f;stroke-width:6.6500001;stroke-linejoin:round;stroke-miterlimit:3.99399996"/>
    <path stroke-miterlimit="3.994" d="M 764.466,642.834 V 123.598 m -82.744,511.399 c -3.435,3.447 -6.262,10.248 -6.265,15.119 m 183.679,534.294 c 0,4.87 2.821,11.67 6.266,15.12 l 197.728,197.73 M 2083.16,689.239 H 1908.8 c -4.87,0 -11.68,-2.817 -15.11,-6.258 l -68.909,-68.897 c -3.44,-3.445 -10.24,-6.259 -15.11,-6.259 h -291.95 c -4.87,0 -11.67,-2.819 -15.12,-6.26 l -103.33,-103.344 c -3.45,-3.447 -10.25,-6.262 -15.13,-6.262 h -129.93 c -4.86,0 -11.67,2.815 -15.11,6.262 l -83.54,83.539 c -3.44,3.446 -10.24,6.26 -15.11,6.26 h -402.9 c -4.871,0 -11.67,2.816 -15.115,6.266 m -106.054,106.05 c -3.441,3.44 -6.259,10.248 -6.259,15.12 V 1034.5 c 0,4.87 -2.821,11.681 -6.266,15.12 l -51.572,51.61 c -5.104,5.08 -8.284,12.189 -8.28,19.979 0,8.41 0,160.091 0,160.091 M 2265.63,704.612 v -56.76 c 0,-4.869 -2.81,-11.67 -6.26,-15.115 l -17.16,-17.162 c -3.44,-3.448 -10.25,-6.266 -15.11,-6.266 h -217.24 c -4.86,0 -11.671,-2.82 -15.11,-6.256 L 1955,563.299 c -3.45,-3.445 -6.27,-10.25 -6.27,-15.119 v -72.472 c 0,-4.868 -2.811,-11.668 -6.261,-15.116 l -65.1,-65.101 c -3.431,-3.44 -10.24,-6.26 -15.11,-6.26 H 1632.3 c -4.88,0 -11.68,2.82 -15.12,6.26 l -71.59,71.59 c -3.45,3.441 -10.24,6.259 -15.109,6.259 H 1371.6" id="path621" inkscape:connector-curvature="0" style="fill:none;stroke:#f58025;stroke-width:6.65100002;stroke-linejoin:round;stroke-miterlimit:3.99399996"/>
    <path stroke-miterlimit="3.994" d="M 764.466,642.834 V 123.598 m -82.744,511.399 c -3.435,3.447 -6.262,10.248 -6.265,15.119 m 183.679,534.294 c 0,4.87 2.821,11.67 6.266,15.12 l 197.728,197.73 M 2083.16,689.239 H 1908.8 c -4.87,0 -11.68,-2.817 -15.11,-6.258 l -68.909,-68.897 c -3.44,-3.445 -10.24,-6.259 -15.11,-6.259 h -291.95 c -4.87,0 -11.67,-2.819 -15.12,-6.26 l -103.33,-103.344 c -3.45,-3.447 -10.25,-6.262 -15.13,-6.262 h -129.93 c -4.86,0 -11.67,2.815 -15.11,6.262 l -83.54,83.539 c -3.44,3.446 -10.24,6.26 -15.11,6.26 h -402.9 c -4.871,0 -11.67,2.816 -15.115,6.266 m -106.054,106.05 c -3.441,3.44 -6.259,10.248 -6.259,15.12 V 1034.5 c 0,4.87 -2.821,11.681 -6.266,15.12 l -51.572,51.61 c -5.104,5.08 -8.284,12.189 -8.28,19.979 0,8.41 0,160.091 0,160.091 M 2265.63,704.612 v -56.76 c 0,-4.869 -2.81,-11.67 -6.26,-15.115 l -17.16,-17.162 c -3.44,-3.448 -10.25,-6.266 -15.11,-6.266 h -217.24 c -4.86,0 -11.671,-2.82 -15.11,-6.256 L 1955,563.299 c -3.45,-3.445 -6.27,-10.25 -6.27,-15.119 v -72.472 c 0,-4.868 -2.811,-11.668 -6.261,-15.116 l -65.1,-65.101 c -3.431,-3.44 -10.24,-6.26 -15.11,-6.26 H 1632.3 c -4.88,0 -11.68,2.82 -15.12,6.26 l -71.59,71.59 c -3.45,3.441 -10.24,6.259 -15.109,6.259 H 1371.6" id="path623" inkscape:connector-curvature="0" style="fill:none;stroke:#ffffff;stroke-width:2.20099998;stroke-linejoin:round;stroke-miterlimit:3.99399996"/>
    <path stroke-miterlimit="3.994" d="m 681.767,635.006 c -3.443,3.442 -6.266,10.243 -6.275,15.112 l -0.159,120.879 c -0.003,4.865 2.805,11.671 6.25,15.111 l 171.331,171.33 c 3.435,3.444 6.255,10.252 6.255,15.121 V 1184.4 c 0,4.87 2.819,11.67 6.264,15.11 l 197.727,197.739 m 1019.98,-708 h -174.35 c -4.87,0 -11.67,-2.823 -15.101,-6.264 l -68.909,-68.891 c -3.44,-3.445 -10.24,-6.258 -15.11,-6.258 h -291.95 c -4.859,0 -11.659,-2.824 -15.109,-6.265 l -103.33,-103.336 c -3.45,-3.445 -10.25,-6.264 -15.12,-6.264 h -129.92 c -4.87,0 -11.67,2.819 -15.12,6.264 l -83.54,83.535 c -3.44,3.445 -10.24,6.26 -15.11,6.26 h -402.88 c -4.881,0 -11.677,2.82 -15.119,6.265 L 616.427,700.338 c -3.445,3.44 -6.267,10.246 -6.267,15.118 V 1034.5 c 0,4.86 -2.813,11.66 -6.258,15.11 l -51.572,51.6 c -5.1,5.091 -8.28,12.21 -8.28,19.98 0,8.42 0,160.85 0,160.85" id="path629" inkscape:connector-curvature="0" style="fill:none;stroke:#f58025;stroke-width:6.6500001;stroke-linejoin:round;stroke-miterlimit:3.99399996"/>
    <path stroke-miterlimit="3.994" d="m 681.767,635.006 c -3.443,3.442 -6.266,10.243 -6.275,15.112 l -0.159,120.879 c -0.003,4.865 2.805,11.671 6.25,15.111 l 171.331,171.33 c 3.435,3.444 6.255,10.252 6.255,15.121 V 1184.4 c 0,4.87 2.819,11.67 6.264,15.11 l 197.727,197.739 m 1019.98,-708 h -174.35 c -4.87,0 -11.67,-2.823 -15.101,-6.264 l -68.909,-68.891 c -3.44,-3.445 -10.24,-6.258 -15.11,-6.258 h -291.95 c -4.859,0 -11.659,-2.824 -15.109,-6.265 l -103.33,-103.336 c -3.45,-3.445 -10.25,-6.264 -15.12,-6.264 h -129.92 c -4.87,0 -11.67,2.819 -15.12,6.264 l -83.54,83.535 c -3.44,3.445 -10.24,6.26 -15.11,6.26 h -402.88 c -4.881,0 -11.677,2.82 -15.119,6.265 L 616.427,700.338 c -3.445,3.44 -6.267,10.246 -6.267,15.118 V 1034.5 c 0,4.86 -2.813,11.66 -6.258,15.11 l -51.572,51.6 c -5.1,5.091 -8.28,12.21 -8.28,19.98 0,8.42 0,160.85 0,160.85" id="path631" inkscape:connector-curvature="0" style="fill:none;stroke:#ffffff;stroke-width:2.20099998;stroke-linejoin:round;stroke-miterlimit:3.99399996"/>
    <path stroke-miterlimit="3.994" d="m 1835.561,1363.62 c 0,-13.819 0,-35.31 0,-712.946" id="path633" inkscape:connector-curvature="0" style="fill:none;stroke:#f58025;stroke-width:6.65100002;stroke-linejoin:round;stroke-miterlimit:3.99399996"/>
    <path stroke-miterlimit="3.994" d="m 1733.51,1580.72 c 0,5.54 -2.109,11.069 -6.34,15.29 -21.109,21.109 -58.27,58.26 -58.27,58.26 m 166.661,-433.5 c 0,5.53 -2.121,11.06 -6.341,15.29 -7.659,7.66 -89.38,89.38 -89.38,89.38 -4.22,4.22 -6.33,8.2 -6.33,13.76 v 356.37" id="path647" inkscape:connector-curvature="0" style="fill:none;stroke:#f58025;stroke-width:6.65100002;stroke-linejoin:round;stroke-miterlimit:3.99399996"/>
    <path stroke-miterlimit="3.994" d="m 1733.51,1580.72 c 0,5.54 -2.109,11.069 -6.34,15.29 -21.109,21.109 -58.27,58.26 -58.27,58.26 m 166.661,-433.5 c 0,5.53 -2.121,11.06 -6.341,15.29 -7.659,7.66 -89.38,89.38 -89.38,89.38 -4.22,4.22 -6.33,8.1 -6.33,13.96 v 356.17 m 102.051,-331.95 c 0,-13.819 0,-35.31 0,-712.946" id="path649" inkscape:connector-curvature="0" style="fill:none;stroke:#ffffff;stroke-width:2.20099998;stroke-linejoin:round;stroke-miterlimit:3.99399996"/>
    <path stroke-miterlimit="3.994" d="m 1333.85,719.881 -42.51,-42.515 c -3.45,-3.446 -10.25,-6.264 -15.12,-6.264 H 779.236 c -3.516,0.049 -7.893,-1.713 -10.42,-4.318 -2.516,-2.448 -4.367,-6.791 -4.309,-10.418 V 123.625" id="path651" inkscape:connector-curvature="0" style="fill:none;stroke:#f58025;stroke-width:6.6500001;stroke-linejoin:round;stroke-miterlimit:3.99399996"/>
    <path stroke-miterlimit="3.994" d="m 1333.85,719.881 -42.51,-42.515 c -3.45,-3.446 -10.25,-6.264 -15.12,-6.264 H 779.236 c -3.516,0.049 -7.893,-1.713 -10.42,-4.318 -2.516,-2.448 -4.367,-6.791 -4.309,-10.418 V 123.625" id="path653" inkscape:connector-curvature="0" style="fill:none;stroke:#ffffff;stroke-width:2.20099998;stroke-linejoin:round;stroke-miterlimit:3.99399996"/>
    <line stroke-miterlimit="3.994" x1="742.22601" y1="417.67999" x2="782.23798" y2="417.69199" id="line655" style="fill:none;stroke:#e7e8e9;stroke-width:8.19900036;stroke-linejoin:round;stroke-miterlimit:3.99399996"/>
    <path stroke-miterlimit="3.994" d="m 121.296,324.977 h 254.946 c 5.974,0 13.289,3.461 17.511,7.678 l 78.764,78.76 c 3.44,3.447 10.244,6.265 15.115,6.265 h 147.379" id="path685" inkscape:connector-curvature="0" style="fill:none;stroke:#97005e;stroke-width:6.65100002;stroke-linejoin:round;stroke-miterlimit:3.99399996"/>
    <path style="fill:none;stroke:#97005e;stroke-width:6.65100002;stroke-linejoin:round;stroke-miterlimit:3.99399996" inkscape:connector-curvature="0" stroke-miterlimit="3.994" d="m 421.951,239.155 c -3.446,-3.446 -6.264,-10.248 -6.264,-15.115 v -55.252 m -194.697,1.345 c -4.869,0 -11.674,-2.818 -15.115,-6.263 l -31.877,-31.881" id="path657"/>
    <path style="fill:none;stroke:#97005e;stroke-width:6.6500001;stroke-linejoin:round;stroke-miterlimit:3.99399996" inkscape:connector-curvature="0" stroke-miterlimit="3.994" d="m 117.9,170.133 h 226.164 c 4.873,0 11.674,2.813 15.119,6.262 l 234.932,235.02 c 3.441,3.447 10.238,6.265 15.113,6.265 l 195.195,0.012 c 4.869,0 11.672,2.818 15.118,6.264 l 330.379,330.378 c 3.45,3.442 10.24,6.268 15.11,6.268 l 302.4,0.027 c 4,0 7.76,1.551 10.58,4.383 l 78.26,78.248 c 5.351,5.336 12.44,8.28 19.99,8.28 h 149.75 c 3.99,0 7.76,1.554 10.58,4.378 2.82,2.829 4.38,6.584 4.38,10.582 v 73.303" id="metropolitan" inkscape:label="metropolitan"/>
    <line stroke-miterlimit="3.994" x1="322.76099" y1="316.70599" x2="322.76099" y2="345.44199" id="line703" style="fill:none;stroke:#e7e8e9;stroke-width:8.19900036;stroke-linejoin:round;stroke-miterlimit:3.99399996"/>
    <line stroke-miterlimit="3.994" x1="322.76099" y1="280.97101" x2="322.76099" y2="397.93799" id="line705" style="fill:none;stroke:#ee3224;stroke-width:6.65100002;stroke-linejoin:round;stroke-miterlimit:3.99399996"/>
  </g>
</svg>
